<?xml version="1.0" standalone="no"?>
<!DOCTYPE svg PUBLIC "-//W3C//DTD SVG 20010904//EN" "http://www.w3.org/TR/2001/REC-SVG-20010904/DTD/svg10.dtd">
<svg version="1.0" xmlns="http://www.w3.org/2000/svg" width="512.000000pt" height="512.000000pt" viewBox="0 0 512.000000 512.000000" preserveAspectRatio="xMidYMid meet">

<g transform="translate(0.000000,512.000000) scale(0.100000,-0.100000)"
fill="#ff6464" stroke="none">
<path d="M997 4333 c-3 -5 -228 -405 -501 -890 l-496 -883 499 -887 499 -888
449 -2 448 -2 865 1381 c476 760 872 1390 880 1400 14 16 38 -23 302 -492
l288 -510 -500 -887 -499 -888 441 -3 c243 -1 445 1 449 5 4 5 230 405 503
890 l496 883 -499 887 -499 888 -449 2 -448 2 -865 -1381 c-476 -760 -872
-1390 -880 -1400 -14 -16 -38 23 -302 492 l-288 510 489 867 c268 478 493 878
500 891 l12 22 -445 0 c-245 0 -447 -3 -449 -7z"/>
</g>
</svg>
